HIERARCHY
ROOT RootJoint
{
    OFFSET   0.000000   0.000000   0.000000
    CHANNELS 6 Xposition Yposition Zposition Xrotation Yrotation Zrotation
    JOINT lHip
    {
        OFFSET   0.100000  -0.051395   0.000000
        CHANNELS 3 Xrotation Yrotation Zrotation
        JOINT lKnee
        {
            OFFSET   0.000000  -0.410000   0.000000
            CHANNELS 3 Xrotation Yrotation Zrotation
            JOINT lAnkle
            {
                OFFSET   0.000000  -0.390000   0.000000
                CHANNELS 3 Xrotation Yrotation Zrotation
                JOINT lToeJoint
                {
                    OFFSET   0.000000  -0.050000   0.130000
                    CHANNELS 3 Xrotation Yrotation Zrotation
                    End Site
                    {
                        OFFSET   0.010000   0.002000   0.060000
                    }
                }
            }
        }
    }
    JOINT rHip
    {
        OFFSET  -0.100000  -0.051395   0.000000
        CHANNELS 3 Xrotation Yrotation Zrotation
        JOINT rKnee
        {
            OFFSET   0.000000  -0.410000   0.000000
            CHANNELS 3 Xrotation Yrotation Zrotation
            JOINT rAnkle
            {
                OFFSET   0.000000  -0.390000   0.000000
                CHANNELS 3 Xrotation Yrotation Zrotation
                JOINT rToeJoint
                {
                    OFFSET   0.000000  -0.050000   0.130000
                    CHANNELS 3 Xrotation Yrotation Zrotation
                    End Site
                    {
                        OFFSET  -0.010000   0.002000   0.060000
                    }
                }
            }
        }
    }
    JOINT pelvis_lowerback
    {
        OFFSET   0.000000   0.093605   0.000000
        CHANNELS 3 Xrotation Yrotation Zrotation
        JOINT lowerback_torso
        {
            OFFSET   0.000000   0.100000   0.000000
            CHANNELS 3 Xrotation Yrotation Zrotation
            JOINT torso_head
            {
                OFFSET   0.000000   0.282350   0.000000
                CHANNELS 3 Xrotation Yrotation Zrotation
                End Site
                {
                    OFFSET   0.000000   0.192650   0.000000
                }
            }
            JOINT lTorso_Clavicle
            {
                OFFSET   0.001000   0.157500   0.000000
                CHANNELS 3 Xrotation Yrotation Zrotation
                JOINT lShoulder
                {
                    OFFSET   0.117647   0.000000   0.000000
                    CHANNELS 3 Xrotation Yrotation Zrotation
                    JOINT lElbow
                    {
                        OFFSET   0.245000   0.000000   0.000000
                        CHANNELS 3 Xrotation Yrotation Zrotation
                        JOINT lWrist
                        {
                            OFFSET   0.240000   0.000000   0.000000
                            CHANNELS 3 Xrotation Yrotation Zrotation
                            End Site
                            {
                                OFFSET   0.116353  -0.002500   0.000000
                            }
                        }
                    }
                }
            }
            JOINT rTorso_Clavicle
            {
                OFFSET  -0.001000   0.157500   0.000000
                CHANNELS 3 Xrotation Yrotation Zrotation
                JOINT rShoulder
                {
                    OFFSET  -0.117647   0.000000   0.000000
                    CHANNELS 3 Xrotation Yrotation Zrotation
                    JOINT rElbow
                    {
                        OFFSET  -0.245000   0.000000   0.000000
                        CHANNELS 3 Xrotation Yrotation Zrotation
                        JOINT rWrist
                        {
                            OFFSET  -0.240000   0.000000   0.000000
                            CHANNELS 3 Xrotation Yrotation Zrotation
                            End Site
                            {
                                OFFSET  -0.116353  -0.002500   0.000000
                            }
                        }
                    }
                }
            }
        }
    }
}
MOTION
Frames: 10
Frame Time:   0.016667
 -0.127470   0.850054   3.097536  -1.926090 -85.858112  15.460481   4.878696  17.672057 -10.521605  17.639510   0.331280   3.512480  -7.847876   1.758163 -10.151609  -0.000001   0.000002  -0.000001 -40.144832 -16.510581  -6.454460  43.938339  -4.961333  -4.631307  -1.373762  -0.756891 -12.572857   0.000000   0.000005  -0.000001   1.618265  -1.288109  -2.006276   6.311005  -5.213556  -7.910402   7.415956 -32.260219   9.603618  -0.016120  -4.484143 -15.256814  24.474338 -32.911631 -41.288366   0.267766 -14.050865   3.344243  -4.717811   7.543895  -8.487233  -1.154626   1.039583  18.788277  20.044520  33.242282  42.159815  -1.138924  29.635759  -3.537965   2.315089   2.793682  -1.399916
 -0.149256   0.848362   3.103515  -4.441242 -86.844866  13.022515   7.597711  17.977662 -11.115094  16.350343   0.320436   3.465407  -7.939772   1.841102 -10.376085  -0.000002   0.000001  -0.000001 -40.486657 -18.656184  -6.540212  37.584090  -5.763689  -4.601218  -1.937163  -1.406358 -13.107992   0.000000   0.000003  -0.000001   1.593585  -1.391153  -1.965093   6.198137  -5.618287  -7.747192   7.055916 -32.390000   9.096978  -0.023994  -4.675587 -15.302201  23.661221 -32.683444 -39.575001   0.277880 -14.178792   3.635195  -4.505453   7.397886  -8.101732  -1.124912   0.770822  18.606081  20.380785  32.537667  42.074784  -1.145871  29.708424  -3.510271   1.890106   2.872147  -1.993516
 -0.170411   0.846745   3.107528  -9.312973 -87.733055   7.964516  10.199512  18.122983 -11.383995  14.846615   0.341793   3.394645  -7.732985   1.952460 -10.766539  -0.000003   0.000001  -0.000001 -40.175850 -21.280851  -6.115343  30.465342  -6.289364  -4.871864  -1.604128  -2.092703 -13.221528  -0.000001   0.000003  -0.000001   1.586697  -1.436574  -1.875677   6.172526  -5.794532  -7.389387   6.666985 -32.704244   8.585767  -0.034380  -4.933961 -15.351281  22.221943 -32.182295 -38.289410   0.294268 -14.479252   4.064465  -3.510404   7.229450  -7.617257  -1.102102   0.486125  18.529466  20.606054  31.703060  42.117688  -1.140658  29.591672  -3.478622   1.482558   2.969099  -2.626019
 -0.191450   0.845142   3.111185 -20.251352 -88.566943  -3.207965  12.781147  18.233658 -11.597354  13.303906   0.370750   3.320298  -7.471125   2.067175 -11.187696  -0.000004   0.000002  -0.000001 -39.712838 -23.989090  -5.565971  23.200069  -6.724620  -5.241655  -1.107620  -2.786573 -13.252185  -0.000002   0.000003   0.000000   1.583092  -1.471521  -1.777489   6.163523  -5.929260  -6.996061   6.268160 -33.049547   8.069424  -0.045430  -5.204496 -15.401093  20.665482 -31.655083 -37.072201   0.314263 -14.810956   4.519596  -2.372160   7.065950  -7.111900  -1.080724   0.198520  18.472134  20.810886  30.845051  42.186029  -1.133149  29.440485  -3.446280   1.079114   3.073106  -3.265043
 -0.211981   0.843231   3.112911 -52.165613 -89.282151 -35.344146  14.837295  18.336633 -11.694902  12.444937   0.348629   3.374439  -6.766050   2.125008 -11.803814  -0.000002   0.000005  -0.000001 -38.582600 -26.401125  -4.579656  16.737967  -7.199274  -5.634692  -0.740938  -3.385045 -13.165934  -0.000001   0.000004  -0.000001   1.563438  -1.462991  -1.690526   6.095945  -5.888654  -6.651873   5.981768 -33.411373   7.573465  -0.052915  -5.432788 -15.390015  18.692139 -30.875848 -36.532758   0.344034 -15.595605   5.220016  -0.927363   6.755188  -6.326263  -1.077063   0.095844  18.513881  21.020894  29.934777  42.400559  -1.103290  28.961573  -3.431838   0.825454   3.113139  -3.696465
 -0.232479   0.841166   3.114438 -125.981590 -89.209974 -109.373563  16.775364  18.425576 -11.772080  11.792399   0.336599   3.441128  -6.061652   2.176295 -12.414196   0.000000   0.000007  -0.000001 -37.399438 -28.499106  -3.512622  10.720627  -7.572996  -6.086964  -0.387136  -3.915533 -13.133823   0.000000   0.000004  -0.000002   1.541565  -1.455753  -1.606796   6.018749  -5.853307  -6.321007   5.718275 -33.750220   7.084608  -0.059348  -5.637928 -15.373614  16.731713 -30.083572 -36.031860   0.382301 -16.454382   5.934016   0.441880   6.416451  -5.489176  -1.074670   0.017550  18.552929  21.238647  29.055633  42.640883  -1.069734  28.428566  -3.422275   0.576305   3.144115  -4.089661
 -0.252796   0.838247   3.114879 -152.851641 -88.458456 -136.410483  18.057045  18.455198 -11.717842  12.275054   0.384852   3.578314  -5.363758   2.226045 -12.989889   0.000002   0.000006  -0.000001 -36.281044 -28.952758  -2.376373   7.198628  -7.610427  -6.602289  -0.110415  -4.075765 -13.418831  -0.000001   0.000005   0.000000   1.507555  -1.455490  -1.540862   5.889847  -5.845150  -6.063517   5.604544 -33.972908   6.655406  -0.060171  -5.715738 -15.327801  14.814211 -29.139784 -35.857314   0.426480 -17.722628   6.710177   1.384762   5.833680  -4.400684  -1.079643   0.073347  18.577094  21.490820  28.345041  43.014044  -1.016268  27.597991  -3.440063   0.350402   3.116026  -4.273512
 -0.273068   0.835092   3.114884 -160.954534 -87.594378 -144.676631  19.055373  18.552399 -11.560679  13.272859   0.450401   3.711921  -4.590505   2.243314 -13.496738   0.000005   0.000005   0.000000 -35.178466 -28.736587  -1.254555   4.650746  -7.555832  -7.054036   0.306724  -4.168267 -13.759606  -0.000002   0.000005   0.000002   1.472963  -1.459487  -1.479174   5.757593  -5.854497  -5.823049   5.549456 -34.157245   6.257357  -0.059584  -5.757101 -15.279130  12.973825 -28.156848 -35.734990   0.485333 -19.125311   7.484218   2.106598   5.164032  -3.243745  -1.085389   0.151237  18.591257  21.740607  27.699393  43.445825  -0.957933  26.672416  -3.459621   0.130382   3.064689  -4.390134
 -0.293271   0.831497   3.113573 -162.970026 -86.711654 -146.881958  19.148690  19.072685 -10.968233  15.969496   0.543209   3.756123  -3.398526   2.109455 -13.655624   0.000002   0.000004  -0.000000 -34.118780 -26.549495  -0.301634   4.958302  -7.432806  -7.123700   1.575805  -4.255308 -14.088802  -0.000001   0.000005   0.000001   1.447302  -1.479789  -1.423054   5.658708  -5.930667  -5.602901   5.673525 -34.248471   5.975100  -0.057064  -5.725347 -15.244199  11.455132 -27.101800 -35.706097   0.546052 -20.860499   8.158286   2.000454   4.190798  -1.997873  -1.087824   0.216561  18.565249  21.929805  27.236491  44.063239  -0.889306  25.522001  -3.465899  -0.079914   2.942825  -4.345865
 -0.313461   0.827823   3.112022 -163.843723 -85.827236 -147.950400  19.070332  19.668856 -10.293462  18.975032   0.641969   3.779437  -2.130795   1.946919 -13.747909   0.000000   0.000002  -0.000001 -33.127789 -23.992942   0.556331   5.784713  -7.299443  -7.125968   2.999519  -4.348558 -14.413933   0.000001   0.000005   0.000000   1.423284  -1.503072  -1.367954   5.566183  -6.019251  -5.386545   5.830093 -34.323345   5.714024  -0.054220  -5.680299 -15.211771  10.005757 -26.033731 -35.669893   0.626165 -22.655535   8.822803   1.763717   3.155842  -0.742222  -1.089622   0.279602  18.531938  22.111982  26.808319  44.713425  -0.819432  24.330704  -3.468368  -0.288249   2.807846  -4.272784
